<?xml version="1.0" standalone="no"?>
<!DOCTYPE svg PUBLIC "-//W3C//DTD SVG 20010904//EN"
 "http://www.w3.org/TR/2001/REC-SVG-20010904/DTD/svg10.dtd">
<svg version="1.0" xmlns="http://www.w3.org/2000/svg"
 width="290.000000pt" height="290.000000pt" viewBox="0 0 290.000000 290.000000"
 preserveAspectRatio="xMidYMid meet">
<metadata>
Created by potrace 1.14, written by Peter Selinger 2001-2017
</metadata>
<g transform="translate(0.000000,290.000000) scale(0.100000,-0.100000)"
fill="#000000" stroke="none">
<path d="M1600 1995 l0 -735 135 0 135 0 0 245 0 245 405 0 c288 0 405 3 405
11 0 23 -61 191 -91 251 -84 168 -238 353 -389 466 -86 66 -239 147 -350 187
-65 23 -220 65 -242 65 -5 0 -8 -331 -8 -735z"/>
<path d="M815 2572 c-143 -79 -288 -203 -395 -337 -97 -122 -210 -346 -227
-450 l-6 -35 337 0 c260 0 338 3 341 13 3 6 4 197 3 424 l-3 412 -50 -27z"/>
<path d="M990 1845 l0 -95 140 0 140 0 0 95 0 95 -140 0 -140 0 0 -95z"/>
<path d="M156 1593 c-3 -21 -6 -87 -6 -148 0 -60 3 -127 6 -147 l7 -38 353 0
354 0 0 185 0 185 -354 0 -353 0 -7 -37z"/>
<path d="M990 1385 l0 -245 -400 0 c-459 0 -416 13 -374 -112 109 -327 388
-627 716 -770 85 -36 226 -80 301 -94 l37 -6 0 736 0 736 -140 0 -140 0 0
-245z"/>
<path d="M2000 1445 l0 -185 354 0 c313 0 355 2 360 16 8 20 8 302 0 332 l-6
22 -354 0 -354 0 0 -185z"/>
<path d="M1600 1045 l0 -95 135 0 135 0 0 95 0 95 -135 0 -135 0 0 -95z"/>
<path d="M2007 1133 c-4 -3 -7 -195 -7 -425 l0 -418 58 29 c194 98 419 335
531 559 30 60 91 228 91 251 0 12 -661 16 -673 4z"/>
</g>
</svg>
